<?xml version="1.0" encoding="iso-8859-1"?>
<!-- Generator: Adobe Illustrator 19.0.0, SVG Export Plug-In . SVG Version: 6.00 Build 0)  -->
<svg version="1.1" id="Capa_1" xmlns="http://www.w3.org/2000/svg" xmlns:xlink="http://www.w3.org/1999/xlink" x="0px" y="0px"
	 viewBox="0 0 512 512" style="enable-background:new 0 0 512 512;" xml:space="preserve">
<circle style="fill:#FF328E;" cx="256" cy="256" r="256"/>
<path style="fill:#C50A5B;" d="M512,256c0-22.821-3.002-44.938-8.605-65.994L391.556,78.167h-34.107v60.616h-60.616v28.937
	l-36.153-36.08c-13.408-14.541-31.325-23.802-53.39-23.802c-42.916,0-70.185,34.988-78.989,75.844h-0.633
	c-11.51,0-20.928,9.417-20.928,20.928v7.554c0,5.8,2.397,11.058,6.246,14.852l21.537,21.396
	c4.682,10.754,11.101,20.323,18.836,28.223l38.197,38.103h-41.903c-26.06,0-47.18,21.13-47.18,47.19v60.96l77.688,77.688
	C204.126,507.999,229.596,512,256,512C397.385,512,512,397.385,512,256z"/>
<path style="fill:#FFDCA8;" d="M286.912,183.683h-0.633c-8.804-40.857-36.073-75.845-78.989-75.845s-70.185,34.988-78.989,75.845
	h-0.633c-11.51,0-20.928,9.417-20.928,20.928v7.554c0,11.51,9.417,20.928,20.928,20.928h1.326c0.085,0,0.169-0.006,0.253-0.007
	c9.978,38.814,41.139,67.132,78.042,67.132s68.065-28.318,78.042-67.132c0.085,0.001,0.168,0.007,0.253,0.007h1.326
	c11.51,0,20.928-9.418,20.928-20.928v-7.554C307.84,193.1,298.422,183.683,286.912,183.683z"/>
<path style="fill:#FFC56E;" d="M307.844,204.609v7.554c0,11.513-9.426,20.93-20.93,20.93h-1.326c-0.087,0-0.173-0.009-0.26-0.009
	c-9.971,38.811-41.133,67.131-78.038,67.131V107.841c42.917,0,70.181,34.982,78.991,75.838h0.632
	C298.418,183.679,307.844,193.104,307.844,204.609z"/>
<path style="fill:#00EFD1;" d="M312.113,361.928v60.96h-209.64v-60.96c0-26.06,21.12-47.19,47.18-47.19h115.27
	c0.2,0,0.41,0,0.61,0.01h0.19c0.14,0,0.28,0,0.42,0.01C291.643,315.398,312.113,336.278,312.113,361.928z"/>
<path style="fill:#00AD95;" d="M312.113,361.928v60.96h-104.82v-108.14h58.43c0.14,0,0.28,0,0.42,0.01
	C291.643,315.398,312.113,336.278,312.113,361.928z"/>
<polygon style="fill:#FFFFFF;" points="166.689,314.74 207.29,384.96 247.892,314.74 "/>
<polygon style="fill:#FFED97;" points="247.892,314.74 207.29,384.96 207.29,314.74 "/>
<polygon style="fill:#FFFFFF;" points="391.556,138.782 391.556,78.167 357.449,78.167 357.449,138.782 296.833,138.782 
	296.833,172.889 357.449,172.889 357.449,233.505 391.556,233.505 391.556,172.889 452.172,172.889 452.172,138.782 "/>
<polygon style="fill:#FFED97;" points="452.17,138.78 452.17,172.89 391.56,172.89 391.56,233.51 374.5,233.51 374.5,78.17 
	391.56,78.17 391.56,138.78 "/>
<g>
</g>
<g>
</g>
<g>
</g>
<g>
</g>
<g>
</g>
<g>
</g>
<g>
</g>
<g>
</g>
<g>
</g>
<g>
</g>
<g>
</g>
<g>
</g>
<g>
</g>
<g>
</g>
<g>
</g>
</svg>
