<?xml version="1.0"?>
<svg xmlns="http://www.w3.org/2000/svg" viewBox="0 0 96 96" width="512" height="512"><g id="_11-ball" data-name="11-ball"><g id="Glyph"><path d="M95.792,43.629a47.994,47.994,0,0,0-95.584,0C.077,45.07,0,46.526,0,48A47.709,47.709,0,0,0,4.691,68.683a47.992,47.992,0,0,0,86.618,0A47.709,47.709,0,0,0,96,48C96,46.526,95.923,45.07,95.792,43.629ZM71.613,15.74l2.414,14.774L64,35.528l-12-6V18.472l13.178-6.589A40.088,40.088,0,0,1,71.613,15.74ZM44,18.472V29.528l-12,6L21.973,30.514,24.387,15.74a40.088,40.088,0,0,1,6.435-3.857ZM8,48a40.086,40.086,0,0,1,.629-7.019l8.013-4.188L28.461,42.7,31.753,59.16l-5.171,7.757L12.1,62.477a3.94,3.94,0,0,0-1.443-.159A39.781,39.781,0,0,1,8,48ZM37.732,86.658,32.575,72.349,38.141,64H57.859l5.566,8.349L58.268,86.658a39.953,39.953,0,0,1-20.536,0ZM83.9,62.477l-14.479,4.44L64.247,59.16,67.539,42.7l11.819-5.91,8.013,4.188A39.742,39.742,0,0,1,85.34,62.319,3.961,3.961,0,0,0,83.9,62.477Z"/></g></g></svg>
