<svg width="24" height="20" viewBox="0 0 24 20" fill="none" xmlns="http://www.w3.org/2000/svg">
<g clip-path="url(#clip0)">
<path d="M15.7661 9.6275C15.5998 9.345 15.2612 9.16668 14.8904 9.16668H12.9335V0.83332C12.9335 0.37332 12.4961 0 11.955 0C11.414 0 10.9766 0.37332 10.9766 0.83332V9.16664H9.01965C8.64883 9.16664 8.31025 9.34496 8.14394 9.62746C7.97956 9.90996 8.01478 10.2475 8.23691 10.5L11.1723 13.8333C11.185 13.8475 11.2046 13.8525 11.2183 13.8658C11.2829 13.9308 11.3592 13.9808 11.4443 14.0266C11.4796 14.0449 11.5069 14.0691 11.5451 14.0841C11.6703 14.1341 11.8073 14.1666 11.9551 14.1666C12.1029 14.1666 12.2398 14.1341 12.366 14.0841C12.4032 14.0691 12.4316 14.0449 12.4658 14.0266C12.551 13.9808 12.6273 13.9308 12.6919 13.8658C12.7046 13.8525 12.7251 13.8475 12.7379 13.8333L15.6733 10.5C15.8963 10.2475 15.9315 9.91 15.7661 9.6275Z" fill="white"/>
<path d="M22.7181 12.5C22.177 12.5 21.7396 12.8733 21.7396 13.3333V15.8333C21.7396 17.2116 20.4226 18.3333 18.8042 18.3333H5.10572C3.48735 18.3333 2.17032 17.2116 2.17032 15.8333V13.3333C2.17032 12.8733 1.73295 12.5 1.19187 12.5C0.650752 12.5 0.213379 12.8733 0.213379 13.3333V15.8333C0.213379 18.1308 2.40809 20 5.10572 20H18.8042C21.5018 20 23.6965 18.1308 23.6965 15.8333V13.3333C23.6965 12.8733 23.2592 12.5 22.7181 12.5Z" fill="white"/>
</g>
<defs>
<clipPath id="clip0">
<rect width="23.4831" height="20" fill="white" transform="translate(0.213379)"/>
</clipPath>
</defs>
</svg>
