<svg id="Capa_1" enable-background="new 0 0 512 512" height="512" viewBox="0 0 512 512" width="512" xmlns="http://www.w3.org/2000/svg"><g><g><path clip-rule="evenodd" d="m67.76 47.68h335.317c8.126 0 14.789 6.636 14.789 14.762v397.634c0 8.126-6.664 14.762-14.789 14.762h-335.317c-8.126 0-14.761-6.636-14.761-14.762v-397.635c0-8.126 6.636-14.761 14.761-14.761z" fill="#7ca2b1" fill-rule="evenodd"/></g><g><path clip-rule="evenodd" d="m97.508 87.353h275.822c2.671 0 4.864 2.165 4.864 4.836v338.138c0 2.671-2.193 4.836-4.864 4.836h-275.822c-2.671 0-4.836-2.165-4.836-4.836v-338.138c-.001-2.671 2.164-4.836 4.836-4.836z" fill="#f8f2f0" fill-rule="evenodd"/></g><g><path clip-rule="evenodd" d="m149.523 44.587c0-2.952 2.418-5.37 5.37-5.37h29.888c1.237 0 .984.197 1.49-.872 2.587-5.37 6.129-10.403 10.6-14.874 10.628-10.657 24.602-15.971 38.548-15.971 13.974 0 27.92 5.314 38.576 15.971 4.471 4.471 7.985 9.504 10.572 14.874.534 1.068.281.872 1.49.872h29.916c2.924 0 5.342 2.418 5.342 5.37v24.433 24.434c0 2.924-2.418 5.342-5.342 5.342-48.67 0-112.41 0-161.079 0-2.952 0-5.37-2.418-5.37-5.342v-24.434-24.433z" fill="#fec165" fill-rule="evenodd"/></g><g><path clip-rule="evenodd" d="m215.287 28.222c13.974 0 27.92 5.314 38.576 15.971 1.125 1.125 2.193 2.277 3.205 3.487 2.98 3.543 5.426 7.367 7.367 11.387.534 1.068.281.872 1.49.872h29.916c2.924 0 5.342 2.418 5.342 5.37v22.044 2.39 9.054h14.789c2.924 0 5.342-2.418 5.342-5.342v-6.101-18.334-21.34-3.093c0-2.952-2.418-5.37-5.342-5.37h-29.916c-1.209 0-.956.197-1.49-.872-2.587-5.37-6.101-10.403-10.572-14.874-5.314-5.314-11.415-9.279-17.966-11.95-6.579-2.699-13.58-4.021-20.609-4.021-7.001 0-14.002 1.322-20.609 4.021-6.523 2.671-12.652 6.636-17.938 11.95-3.739 3.74-6.832 7.873-9.25 12.259 8.518-5.005 18.106-7.508 27.665-7.508z" fill="#fea610" fill-rule="evenodd"/></g><g><path clip-rule="evenodd" d="m92.671 125.452h245.176c2.671 0 4.864 2.193 4.864 4.864v194.487c7.873-2.193 16.167-3.374 24.742-3.374 3.627 0 7.226.197 10.741.619v-229.859c0-2.671-2.193-4.836-4.864-4.836h-52.015v6.101c0 2.924-2.418 5.342-5.342 5.342h-14.789-146.29c-2.952 0-5.37-2.418-5.37-5.342v-6.101h-52.016c-2.671 0-4.836 2.165-4.836 4.836v33.263z" fill="#eee1dc" fill-rule="evenodd"/></g><g><path clip-rule="evenodd" d="m367.454 504.5c50.413 0 91.547-41.107 91.547-91.55 0-50.414-41.134-91.522-91.547-91.522s-91.547 41.107-91.547 91.522c-.001 50.443 41.134 91.55 91.547 91.55z" fill="#00c0fa" fill-rule="evenodd"/></g><g><path clip-rule="evenodd" d="m367.454 321.429c50.553 0 91.547 40.967 91.547 91.522s-40.994 91.55-91.547 91.55c-3.374 0-6.72-.197-10.009-.534 42.653-7.817 74.958-45.156 74.958-90.059 0-47.153-35.68-86.011-81.51-90.987 5.37-.986 10.909-1.492 16.561-1.492z" fill="#08a9f1" fill-rule="evenodd"/></g><g><path clip-rule="evenodd" d="m394.53 394.449h15.577c1.715 0 3.121 1.406 3.121 3.121v30.788c0 1.715-1.406 3.121-3.121 3.121h-15.577-4.161c-2.418 0-4.414 1.968-4.414 4.386v4.189 15.577c0 1.715-1.406 3.093-3.093 3.093h-30.816c-1.715 0-3.093-1.378-3.093-3.093v-15.577-4.189c0-2.418-1.996-4.386-4.414-4.386h-4.189-15.548c-1.715 0-3.121-1.406-3.121-3.121v-30.788c0-1.715 1.406-3.121 3.121-3.121h15.548 4.189c2.418 0 4.414-1.968 4.414-4.386v-4.189-15.577c0-1.715 1.378-3.093 3.093-3.093h30.816c1.687 0 3.093 1.378 3.093 3.093v15.577 4.189c0 2.418 1.996 4.386 4.414 4.386z" fill="#fb2a39" fill-rule="evenodd"/></g><g><path clip-rule="evenodd" d="m371.98 458.725h10.881c1.687 0 3.093-1.378 3.093-3.093v-15.577-4.189c0-2.418 1.996-4.386 4.414-4.386h4.161 15.577c1.715 0 3.121-1.406 3.121-3.121v-30.789c0-1.715-1.406-3.121-3.121-3.121h-15.576-4.161c-2.418 0-4.414-1.968-4.414-4.386v-4.189-15.577c0-1.715-1.406-3.093-3.093-3.093h-11.837c7.057 29.045 7.338 62.167.955 91.521z" fill="#e41e2b" fill-rule="evenodd"/></g><g><path clip-rule="evenodd" d="m378.194 92.189v229.858c14.536 1.687 28.032 6.804 39.672 14.508v-274.114c0-8.126-6.664-14.762-14.789-14.762h-47.967c8.126 0 14.761 6.636 14.761 14.762v24.912h3.458c2.672 0 4.865 2.165 4.865 4.836z" fill="#668d97" fill-rule="evenodd"/></g><g><path d="m136.908 175.673 12.849 8.294c1.246.804 2.659 1.198 4.065 1.198 1.824 0 3.637-.664 5.057-1.959l30.45-27.779c3.06-2.792 3.278-7.536.486-10.596-2.792-3.061-7.535-3.277-10.595-.486l-26.182 23.886-7.995-5.161c-3.48-2.245-8.122-1.246-10.369 2.234s-1.246 8.122 2.234 10.369z"/><path d="m216.159 171.275h106.505c4.143 0 7.5-3.357 7.5-7.5s-3.357-7.5-7.5-7.5h-106.505c-4.142 0-7.5 3.357-7.5 7.5s3.358 7.5 7.5 7.5z"/><path d="m216.159 238.166h106.505c4.143 0 7.5-3.357 7.5-7.5s-3.357-7.5-7.5-7.5h-106.505c-4.142 0-7.5 3.357-7.5 7.5s3.358 7.5 7.5 7.5z"/><path d="m216.159 305.058h86.992c4.143 0 7.5-3.357 7.5-7.5s-3.357-7.5-7.5-7.5h-86.992c-4.142 0-7.5 3.357-7.5 7.5s3.358 7.5 7.5 7.5z"/><path d="m216.159 371.977h32.728c4.142 0 7.5-3.357 7.5-7.5s-3.358-7.5-7.5-7.5h-32.728c-4.142 0-7.5 3.357-7.5 7.5s3.358 7.5 7.5 7.5z"/><path d="m179.22 206.062-26.189 23.893-7.998-5.146c-3.484-2.24-8.125-1.234-10.366 2.25-2.241 3.483-1.234 8.124 2.25 10.365l12.849 8.267c1.244.8 2.653 1.192 4.056 1.192 1.824 0 3.637-.664 5.057-1.959l30.45-27.78c3.06-2.792 3.278-7.536.486-10.596-2.791-3.061-7.535-3.277-10.595-.486z"/><path d="m136.908 299.136 12.849 8.294c1.246.804 2.659 1.198 4.065 1.198 1.824 0 3.637-.664 5.057-1.959l30.45-27.779c3.06-2.792 3.278-7.536.486-10.596-2.792-3.061-7.535-3.276-10.595-.486l-26.182 23.886-7.995-5.161c-3.48-2.245-8.122-1.246-10.369 2.234s-1.246 8.122 2.234 10.369z"/><path d="m136.908 360.852 12.849 8.295c1.246.805 2.659 1.199 4.066 1.199 1.824 0 3.637-.664 5.057-1.959l30.45-27.78c3.06-2.792 3.278-7.536.486-10.596-2.791-3.061-7.536-3.277-10.595-.486l-26.182 23.887-7.995-5.161c-3.48-2.249-8.123-1.249-10.369 2.233-2.247 3.479-1.247 8.121 2.233 10.368z"/><path d="m410.106 386.949h-16.652v-16.652c0-5.842-4.752-10.594-10.593-10.594h-30.815c-5.841 0-10.593 4.752-10.593 10.594v16.652h-16.652c-5.856 0-10.621 4.765-10.621 10.621v30.788c0 5.856 4.765 10.621 10.621 10.621h16.652v16.652c0 5.842 4.752 10.594 10.593 10.594h30.815c5.841 0 10.593-4.752 10.593-10.594v-16.652h16.652c5.856 0 10.621-4.765 10.621-10.621v-30.788c.001-5.856-4.764-10.621-10.621-10.621zm-4.378 37.03h-15.359c-6.569 0-11.914 5.332-11.914 11.887v15.359h-22.001v-15.359c0-6.555-5.345-11.887-11.914-11.887h-15.36v-22.03h15.359c6.569 0 11.914-5.332 11.914-11.887v-15.359h22.001v15.359c0 6.555 5.345 11.887 11.914 11.887h15.359v22.03z"/><path d="m425.366 332.669v-109.96c0-4.143-3.357-7.5-7.5-7.5s-7.5 3.357-7.5 7.5v101.004c-7.722-3.727-16.001-6.474-24.672-8.094v-223.43c0-6.803-5.547-12.337-12.364-12.337h-44.516v-24.672h74.263c4.02 0 7.289 3.258 7.289 7.262v125.908c0 4.143 3.357 7.5 7.5 7.5s7.5-3.357 7.5-7.5v-125.909c0-12.275-9.999-22.262-22.289-22.262h-75.055c-1.801-4.929-6.515-8.464-12.05-8.464h-26.404c-2.772-4.949-6.216-9.494-10.271-13.548-11.714-11.715-27.297-18.167-43.878-18.167-16.594 0-32.169 6.454-43.851 18.167-4.073 4.073-7.521 8.609-10.294 13.549h-26.381c-5.547 0-10.271 3.534-12.076 8.464h-75.057c-12.275 0-22.261 9.986-22.261 22.262v397.634c0 12.274 9.986 22.261 22.261 22.261h229.084c17.981 18.295 42.991 29.663 70.61 29.663 54.614 0 99.047-44.434 99.047-99.05 0-33-16.235-62.277-41.135-80.281zm-268.343-285.953h27.758l.251.006c3.585.088 6.42-1.646 7.92-4.956l.076-.166c2.269-4.71 5.347-9.025 9.154-12.833 8.854-8.877 20.657-13.767 33.237-13.767 12.574 0 24.391 4.892 33.271 13.774 3.765 3.764 6.833 8.079 9.119 12.825.016.033.032.066.049.1l.105.217c1.978 4.116 5.361 4.896 7.858 4.805l27.992-.005v44.581h-156.79zm-89.263 420.62c-4.004 0-7.261-3.257-7.261-7.261v-397.634c0-4.004 3.257-7.262 7.261-7.262h74.263v24.673h-44.516c-6.802 0-12.336 5.534-12.336 12.337v186.923c0 4.143 3.358 7.5 7.5 7.5s7.5-3.357 7.5-7.5v-184.259h41.932c.701 6.426 6.167 11.444 12.79 11.444h161.08c6.608 0 12.063-5.018 12.762-11.444h41.96v219.135c-1.076-.035-2.156-.059-3.24-.059-54.615 0-99.048 44.421-99.048 99.021 0 4.999.376 9.911 1.094 14.713h-169.33v-114.191c0-4.143-3.358-7.5-7.5-7.5s-7.5 3.357-7.5 7.5v116.855c0 6.802 5.534 12.336 12.336 12.336h175.454c2.779 8.818 6.763 17.105 11.754 24.673zm299.694 29.664c-46.344 0-84.048-37.704-84.048-84.05 0-46.33 37.704-84.021 84.048-84.021s84.047 37.691 84.047 84.021c0 46.346-37.703 84.05-84.047 84.05z"/></g></g></svg>