<svg id="Capa_1" enable-background="new 0 0 512 512" height="512" viewBox="0 0 512 512" width="512" xmlns="http://www.w3.org/2000/svg"><g><path d="m299.782 213.761c-4.268 0-7.726-3.459-7.726-7.726v-150.406c0-9.941-8.087-18.028-18.028-18.028h-32.966c-4.268 0-7.726-3.459-7.726-7.726s3.459-7.726 7.726-7.726h32.966c18.462 0 33.481 15.02 33.481 33.481v150.406c0 4.266-3.459 7.725-7.727 7.725z" fill="#fcf1f2"/><path d="m215.591.018c7.511-.354 13.913 4.658 15.702 11.531.59 2.266 2.547 3.904 4.888 3.904h10.031c5.689 0 10.302 4.612 10.302 10.302v10.302c0 5.689-4.612 10.302-10.302 10.302h-10.031c-2.341 0-4.299 1.638-4.888 3.904-1.789 6.873-8.191 11.885-15.702 11.531-8.311-.391-14.706-7.551-14.706-15.871v-30.034c.001-8.321 6.395-15.48 14.706-15.871z" fill="#736572"/><path d="m45.329 213.761c-4.268 0-7.726-3.459-7.726-7.726v-150.406c0-18.461 15.019-33.481 33.481-33.481h22.664c4.268 0 7.726 3.459 7.726 7.726s-3.459 7.726-7.726 7.726h-22.664c-9.941 0-18.028 8.087-18.028 18.028v150.406c0 4.268-3.459 7.727-7.727 7.727z" fill="#fcf1f2"/><path d="m129.52.018c-7.511-.354-13.913 4.658-15.702 11.531-.59 2.266-2.547 3.904-4.889 3.904h-10.031c-5.689 0-10.302 4.612-10.302 10.302v10.302c0 5.689 4.612 10.302 10.302 10.302h10.031c2.341 0 4.299 1.638 4.889 3.904 1.789 6.873 8.191 11.885 15.702 11.531 8.311-.391 14.706-7.551 14.706-15.871v-30.034c0-8.321-6.394-15.48-14.706-15.871z" fill="#736572"/><path d="m451.218 215.307-15.453 210.166c0 25.603-24.705 39.117-24.705 39.117s-16.821 5.27-21.655 3.561c-18.004-6.365-30.902-23.536-30.902-43.719v-38.477c0-11.696-10.048-21.09-21.964-20.003-10.411.95-30.794 10.19-30.794 20.645l.315 47.086c0 45.585-50.709 73.858-67.283 76.22-4.247-.154-13.266.83-16.763.609-37.53-7.337-65.425-40.966-65.425-80.386v-68.534h30.905v69.537c0 28.471 23.937 51.457 52.744 49.888 26.617-1.45 47.183-24.038 47.183-50.695v-44.006c0-29.059 24.433-52.519 53.833-50.916 27.165 1.481 48.154 24.534 48.154 51.74v37.293c0 8.534 6.918 15.453 15.453 15.453 8.534 0 15.453-6.918 15.453-15.453v-209.126z" fill="#cbb0f2"/><path d="m338.249 365.867c-.567 0-1.133.031-1.71.082-10.415.948-18.213 10.013-18.213 20.47v44.71c0 45.585-37.91 82.486-83.866 80.817-4.224-.155-8.355-.639-12.372-1.422-.021-.01-.052-.021-.072-.021 37.086-7.201 65.19-39.827 65.396-78.932.01-.144.01-.299.01-.443v-32.564c0-19.615 14.227-32.615 30.133-32.615z" fill="#b696ef"/><path d="m451.218 215.307v209.126c0 25.6-20.758 46.358-46.358 46.358-5.419 0-10.621-.927-15.453-2.648 17.771-6.274 30.565-23.076 30.885-42.917.01-.258.021-.525.021-.793v-209.126z" fill="#b696ef"/><path d="m284.33 250.333c0 19.913-16.143 36.056-36.056 36.056h-151.436c-19.913 0-36.056-16.143-36.056-36.056v-48.418c0-2.845-2.306-5.151-5.151-5.151h-20.604c-2.845 0-5.151 2.306-5.151 5.151v53.569c0 34.137 27.674 61.811 61.811 61.811h39.147c5.689 0 10.302 4.612 10.302 10.302v25.754c0 5.689 4.612 10.302 10.302 10.302h13.392c5.689 0 10.302-4.612 10.302-10.302v-25.754c0-5.689 4.612-10.302 10.302-10.302h51.509c34.137 0 61.811-27.674 61.811-61.811z" fill="#736572"/><path d="m213.248 317.294c-5.687 0-10.302 4.615-10.302 10.302v25.754c0 5.687-4.615 10.302-10.302 10.302h-30.905c5.687 0 10.302-4.615 10.302-10.302v-25.754c0-5.687 4.615-10.302 10.302-10.302z" fill="#615260"/><path d="m315.235 201.914v53.569c0 34.14-27.67 61.811-61.811 61.811h-30.905c34.14 0 61.811-27.671 61.811-61.811v-53.569c0-2.843 2.308-5.151 5.151-5.151h20.604c2.842 0 5.15 2.308 5.15 5.151z" fill="#615260"/><path d="m420.31 225.03c-18.004-6.365-30.902-23.536-30.902-43.719 0-20.183 12.898-37.354 30.902-43.719 4.834-1.709 48.15 18.116 48.15 43.719 0 25.603-43.316 45.428-48.15 43.719z" fill="#bcf1f8"/><path d="m482.123 181.311c0 12.795-5.192 24.395-13.578 32.78-8.386 8.386-19.986 13.578-32.78 13.578-5.419 0-10.621-.927-15.453-2.648 6.593-2.318 12.496-6.099 17.328-10.93 8.386-8.386 13.578-19.985 13.578-32.78s-5.192-24.395-13.578-32.78c-4.832-4.832-10.735-8.612-17.328-10.93 4.831-1.72 10.034-2.648 15.453-2.648 12.795 0 24.394 5.192 32.78 13.578 8.386 8.385 13.578 19.985 13.578 32.78z" fill="#8ef0f0"/><path d="m435.766 196.763c-8.534 0-15.453-6.918-15.453-15.453 0-8.534 6.918-15.453 15.453-15.453 8.534 0 15.453 6.918 15.453 15.453-.001 8.535-6.919 15.453-15.453 15.453z" fill="#00ddf9"/><path d="m210.469 162.188c0 38.921-46.304 55.364-53.379 51.094-18.761-11.324-46.423-35.871-46.423-64.134 0-18.934 15.349-34.284 34.284-34.284 9.804 0 18.644 4.117 24.891 10.715 1.469 1.552 3.958 1.552 5.428 0 2.705-2.856 5.896-5.248 9.44-7.041 0 0 15.208-.583 26.389 25.54z" fill="#ff8d95"/><path d="m234.449 149.149c0 38.92-52.488 70.794-61.893 70.794-2.586 0-8.386-2.39-15.463-6.665 18.759-11.311 46.451-35.86 46.451-64.128 0-9.467-3.832-18.038-10.044-24.24-2.555-2.565-5.522-4.718-8.787-6.366 4.636-2.349 9.89-3.678 15.453-3.678 9.467 0 18.038 3.832 24.24 10.044 6.21 6.2 10.043 14.771 10.043 24.239z" fill="#ff738a"/></g></svg>