<svg width="30" height="30" viewBox="0 0 30 30" fill="white" xmlns="http://www.w3.org/2000/svg">
<g clip-path="url(#clip0)">
<path d="M18.125 29.9999C17.7087 29.9999 17.3175 29.7924 17.085 29.4437L14.9563 26.2499H12.5C11.81 26.2499 11.25 25.6899 11.25 24.9999C11.25 24.3099 11.81 23.7499 12.5 23.7499H15.625C16.0425 23.7499 16.4325 23.9587 16.665 24.3062L17.97 26.2637L20.7562 20.6899C20.9612 20.2824 21.37 20.0174 21.8263 19.9999C22.3113 19.9887 22.7113 20.2149 22.9463 20.6049L26.3325 26.2499H28.75C29.44 26.2499 30 26.8099 30 27.4999C30 28.1899 29.44 28.7499 28.75 28.7499H25.625C25.1862 28.7499 24.7787 28.5199 24.5537 28.1437L21.975 23.8462L19.2438 29.3099C19.0438 29.7087 18.6475 29.9712 18.2025 29.9987C18.1775 29.9999 18.1512 29.9999 18.125 29.9999Z" fill="white"/>
<path d="M11.2501 12.5C14.7019 12.5 17.5001 9.70178 17.5001 6.25C17.5001 2.79822 14.7019 0 11.2501 0C7.79834 0 5.00012 2.79822 5.00012 6.25C5.00012 9.70178 7.79834 12.5 11.2501 12.5Z" fill="white"/>
<path d="M8.75 25C8.75 22.9325 10.4325 21.25 12.5 21.25H15.625C16.2738 21.25 16.8988 21.4163 17.4475 21.7213L18.5212 19.5725C19.0675 18.4838 20.1075 17.77 21.2887 17.58C20.1513 16.0238 18.3263 15 16.25 15H6.25C2.79875 15 0 17.7988 0 21.25V25.3125C0 25.83 0.42 26.25 0.9375 26.25H8.98C8.84 25.8575 8.75 25.44 8.75 25Z" fill="white"/>
</g>
<defs>
<clipPath id="clip0">
<rect width="30" height="30" fill="white"/>
</clipPath>
</defs>
</svg>
