<svg width="25" height="25" viewBox="0 0 25 25" fill="none" xmlns="http://www.w3.org/2000/svg">
<path d="M24.6142 21.4807L18.6286 15.2972C18.1994 14.8535 17.6629 14.6759 17.4305 14.9027C17.1973 15.1279 16.6605 14.9508 16.2313 14.5071L16.1457 14.4184C18.8246 10.895 18.5646 5.85027 15.3476 2.63328C11.8366 -0.877759 6.14387 -0.877759 2.63328 2.63328C-0.877759 6.14431 -0.877759 11.8362 2.63328 15.3473C5.90507 18.6195 11.069 18.8387 14.5996 16.0125L14.6372 16.0517C15.0656 16.4953 15.2252 17.0374 14.9912 17.2629C14.7584 17.4886 14.9168 18.031 15.3464 18.4738L21.3288 24.6598C21.758 25.1022 22.4652 25.1154 22.9093 24.6858L24.5882 23.0613C25.0306 22.6328 25.0426 21.926 24.6142 21.4807ZM13.3719 13.3714C10.9558 15.788 7.024 15.788 4.60822 13.3722C2.19207 10.9561 2.19244 7.02386 4.60822 4.60815C7.024 2.192 10.9558 2.19237 13.3711 4.60852C15.7877 7.0243 15.7877 10.9557 13.3719 13.3714Z" fill="#12AFCB"/>
</svg>
