<svg width="363" height="319" viewBox="0 0 363 319" fill="none" xmlns="http://www.w3.org/2000/svg">
<path d="M189.953 758.202C292.04 736.582 345.185 696.89 349.39 639.128C355.697 552.485 117.792 621.942 213.032 441.128C308.273 260.315 394.35 255.838 349.39 143.128C304.43 30.4177 183.703 -28.7522 43.453 16.0018C-50.048 45.8378 -101.199 156.547 -110 348.128" stroke="#2E4A7D" stroke-opacity="0.2" stroke-width="2"/>
<path d="M147.963 758.202C228.046 739.214 269.737 704.356 273.035 653.627C277.983 577.534 91.356 638.533 166.069 479.737C240.781 320.94 308.303 317.01 273.035 218.022C237.766 119.036 143.061 67.0719 33.04 106.376C-40.307 132.58 -80.433 229.807 -87.337 398.061" stroke="#2E4A7D" stroke-opacity="0.2" stroke-width="2"/>
<path d="M111.728 760.202C172.332 743.642 203.881 713.239 206.378 668.994C210.121 602.627 68.89 655.829 125.429 517.33C181.969 378.83 233.067 375.403 206.377 289.069C179.687 202.734 108.018 157.413 24.759 191.693C-30.747 214.547 -61.112 299.347 -66.337 446.094" stroke="#2E4A7D" stroke-opacity="0.2" stroke-width="2"/>
</svg>
