<svg width="292" height="528" viewBox="0 0 292 528" fill="none" xmlns="http://www.w3.org/2000/svg">
<g clip-path="url(#clip0)">
<path d="M172.71 -231C70.623 -209.38 17.478 -169.688 13.273 -111.926C6.96601 -25.283 244.871 -94.74 149.631 86.074C54.39 266.887 -31.687 271.364 13.273 384.074C58.233 496.784 178.96 555.954 319.21 511.2C412.711 481.364 463.862 370.655 472.663 179.074" stroke="#2E4A7D" stroke-opacity="0.2" stroke-width="2"/>
<path d="M214.7 -231C134.617 -212.012 92.926 -177.154 89.628 -126.425C84.68 -50.332 271.307 -111.331 196.594 47.465C121.882 206.262 54.36 210.192 89.628 309.18C124.897 408.166 219.602 460.13 329.623 420.826C402.97 394.622 443.096 297.395 450 129.141" stroke="#2E4A7D" stroke-opacity="0.2" stroke-width="2"/>
<path d="M250.935 -233C190.331 -216.44 158.782 -186.037 156.285 -141.792C152.542 -75.425 293.773 -128.627 237.234 9.87199C180.694 148.372 129.596 151.799 156.286 238.133C182.976 324.468 254.645 369.789 337.904 335.509C393.41 312.655 423.775 227.855 429 81.108" stroke="#2E4A7D" stroke-opacity="0.2" stroke-width="2"/>
</g>
<defs>
<clipPath id="clip0">
<rect width="375" height="658" fill="white" transform="translate(0 -130)"/>
</clipPath>
</defs>
</svg>
