<svg width="40" height="40" viewBox="0 0 40 40" fill="none" xmlns="http://www.w3.org/2000/svg">
<path d="M23.8726 16.6997C23.4951 16.6997 23.1892 16.4295 23.1892 16.0961V4.34556C23.1892 3.56892 22.474 2.93712 21.5947 2.93712H18.6789C18.3015 2.93712 17.9956 2.66688 17.9956 2.33352C17.9956 2.00016 18.3015 1.72992 18.6789 1.72992H21.5947C23.2276 1.72992 24.556 2.90337 24.556 4.34564V16.0962C24.556 16.4295 24.2501 16.6997 23.8726 16.6997Z" fill="#FCF1F2"/>
<path d="M16.4262 0.00137838C17.0905 -0.0262781 17.6568 0.365287 17.815 0.902245C17.8672 1.07928 18.0403 1.20725 18.2473 1.20725H19.1345C19.6377 1.20725 20.0457 1.56756 20.0457 2.0121V2.81695C20.0457 3.2614 19.6378 3.6218 19.1345 3.6218H18.2473C18.0403 3.6218 17.8671 3.74977 17.815 3.9268C17.6568 4.46376 17.0905 4.85532 16.4262 4.82766C15.6911 4.79712 15.1255 4.23774 15.1255 3.58773V1.24131C15.1256 0.591227 15.6911 0.0319255 16.4262 0.00137838Z" fill="#736572"/>
<path d="M1.36694 16.6998C0.989444 16.6998 0.683594 16.4296 0.683594 16.0962V4.34564C0.683594 2.90337 2.01198 1.72992 3.64489 1.72992H5.64946C6.02695 1.72992 6.3328 2.00016 6.3328 2.33352C6.3328 2.66688 6.02686 2.93712 5.64946 2.93712H3.64489C2.76564 2.93712 2.05037 3.56892 2.05037 4.34556V16.0961C2.05037 16.4296 1.74443 16.6998 1.36694 16.6998Z" fill="#FCF1F2"/>
<path d="M8.81346 0.00137838C8.14913 -0.0262781 7.58289 0.365287 7.42466 0.902245C7.37248 1.07928 7.19939 1.20725 6.99224 1.20725H6.10503C5.60185 1.20725 5.19385 1.56756 5.19385 2.0121V2.81695C5.19385 3.2614 5.60177 3.6218 6.10503 3.6218H6.99224C7.1993 3.6218 7.37248 3.74977 7.42466 3.9268C7.58289 4.46376 8.14913 4.85532 8.81346 4.82766C9.54854 4.79712 10.1142 4.23774 10.1142 3.58773V1.24131C10.1142 0.591227 9.54863 0.0319255 8.81346 0.00137838Z" fill="#736572"/>
<path d="M37.2666 16.8206L35.8999 33.24C35.8999 35.2402 33.7148 36.296 33.7148 36.296C33.7148 36.296 32.227 36.7077 31.7994 36.5742C30.207 36.0769 29.0663 34.7354 29.0663 33.1586V30.1526C29.0663 29.2388 28.1775 28.5049 27.1236 28.5898C26.2028 28.6641 24.4 29.3859 24.4 30.2027L24.4278 33.8814C24.4278 37.4427 19.9427 39.6516 18.4768 39.8361C18.1012 39.8241 17.3035 39.9009 16.9942 39.8837C13.6748 39.3105 11.2075 36.6832 11.2075 33.6035V28.2492H13.941V33.6818C13.941 35.9062 16.0581 37.7019 18.606 37.5794C20.9602 37.4661 22.7792 35.7014 22.7792 33.6188V30.1808C22.7792 27.9105 24.9403 26.0777 27.5406 26.203C29.9433 26.3187 31.7997 28.1197 31.7997 30.2452V33.1587C31.7997 33.8254 32.4116 34.366 33.1665 34.366C33.9213 34.366 34.5333 33.8255 34.5333 33.1587V16.8206H37.2666Z" fill="#CBB0F2"/>
<path d="M27.2746 28.5832C27.2245 28.5832 27.1744 28.5856 27.1234 28.5896C26.2022 28.6637 25.5125 29.3719 25.5125 30.1888V33.6818C25.5125 37.2432 22.1595 40.1261 18.0948 39.9957C17.7212 39.9836 17.3558 39.9458 17.0005 39.8846C16.9987 39.8838 16.9959 39.883 16.9941 39.883C20.2743 39.3204 22.76 36.7715 22.7782 33.7164C22.7791 33.7051 22.7791 33.693 22.7791 33.6817V31.1377C22.7791 29.6052 24.0374 28.5896 25.4443 28.5896L27.2746 28.5832Z" fill="#B696EF"/>
<path d="M37.2663 16.8206V33.1587C37.2663 35.1587 35.4303 36.7805 33.1661 36.7805C32.6868 36.7805 32.2267 36.708 31.7993 36.5736C33.3711 36.0834 34.5027 34.7708 34.531 33.2207C34.5319 33.2005 34.5329 33.1796 34.5329 33.1587V16.8206H37.2663Z" fill="#B696EF"/>
<path d="M22.5058 19.5571C22.5058 21.1128 21.078 22.374 19.3167 22.374H5.9226C4.16135 22.374 2.73355 21.1128 2.73355 19.5571V15.7744C2.73355 15.5521 2.52959 15.3719 2.27796 15.3719H0.455592C0.203959 15.3719 0 15.5521 0 15.7744V19.9595C0 22.6265 2.44769 24.7885 5.46701 24.7885H8.92946C9.43263 24.7885 9.84064 25.1488 9.84064 25.5934V27.6054C9.84064 28.0499 10.2486 28.4103 10.7518 28.4103H11.9363C12.4395 28.4103 12.8475 28.0499 12.8475 27.6054V25.5934C12.8475 25.1489 13.2554 24.7885 13.7587 24.7885H18.3145C21.3338 24.7885 23.7815 22.6265 23.7815 19.9595L22.5058 19.5571Z" fill="#736572"/>
<path d="M16.2189 24.7885C15.7159 24.7885 15.3077 25.149 15.3077 25.5933V27.6053C15.3077 28.0496 14.8995 28.4102 14.3965 28.4102H11.6631C12.1661 28.4102 12.5743 28.0496 12.5743 27.6053V25.5933C12.5743 25.149 12.9825 24.7885 13.4855 24.7885H16.2189Z" fill="#615260"/>
<path d="M25.2391 15.7742V19.9593C25.2391 22.6265 22.7917 24.7883 19.772 24.7883H17.0386C20.0582 24.7883 22.5056 22.6265 22.5056 19.9593V15.7742C22.5056 15.5521 22.7097 15.3718 22.9612 15.3718H24.7836C25.0349 15.3718 25.2391 15.5521 25.2391 15.7742Z" fill="#615260"/>
<path d="M34.533 17.5803C32.9406 17.083 31.7998 15.7415 31.7998 14.1647C31.7998 12.5879 32.9406 11.2464 34.533 10.7491C34.9606 10.6156 38.7917 12.1644 38.7917 14.1647C38.7917 16.1649 34.9606 17.7138 34.533 17.5803Z" fill="#BCF1F8"/>
<path d="M40.0002 14.1647C40.0002 15.1643 39.541 16.0705 38.7993 16.7256C38.0576 17.3808 37.0316 17.7864 35.9 17.7864C35.4207 17.7864 34.9606 17.714 34.5332 17.5795C35.1163 17.3984 35.6384 17.103 36.0658 16.7256C36.8075 16.0705 37.2668 15.1643 37.2668 14.1647C37.2668 13.165 36.8075 12.2588 36.0658 11.6037C35.6384 11.2262 35.1163 10.9309 34.5332 10.7498C34.9605 10.6154 35.4207 10.5429 35.9 10.5429C37.0317 10.5429 38.0576 10.9485 38.7993 11.6037C39.541 12.2588 40.0002 13.165 40.0002 14.1647Z" fill="#8EF0F0"/>
<path d="M35.9 15.3718C35.1452 15.3718 34.5332 14.8313 34.5332 14.1645C34.5332 13.4978 35.1451 12.9572 35.9 12.9572C36.6548 12.9572 37.2668 13.4977 37.2668 14.1645C37.2667 14.8313 36.6548 15.3718 35.9 15.3718Z" fill="#00DDF9"/>
<path d="M15.9732 12.6707C15.9732 15.7114 11.8777 16.996 11.252 16.6624C9.59262 15.7777 7.146 13.86 7.146 11.6519C7.146 10.1727 8.50357 8.97345 10.1783 8.97345C11.0455 8.97345 11.8273 9.29509 12.3799 9.81057C12.5098 9.93182 12.7299 9.93182 12.8599 9.81057C13.0992 9.58744 13.3814 9.40056 13.6949 9.26048C13.6949 9.26048 15.04 9.21494 16.0289 11.2558L15.9732 12.6707Z" fill="#FF8D95"/>
<path d="M18.0939 11.652C18.0939 14.6926 13.4515 17.1828 12.6196 17.1828C12.3909 17.1828 11.8779 16.9961 11.252 16.6621C12.9111 15.7784 15.3604 13.8605 15.3604 11.652C15.3604 10.9124 15.0215 10.2428 14.4721 9.75827C14.2461 9.55787 13.9836 9.38967 13.6949 9.26092C14.1049 9.0774 14.5696 8.97357 15.0616 8.97357C15.899 8.97357 16.6571 9.27295 17.2056 9.75827C17.7549 10.2426 18.0939 10.9123 18.0939 11.652Z" fill="#FF738A"/>
</svg>
